<svg width="212" height="72" viewBox="0 0 212 72" fill="none" xmlns="http://www.w3.org/2000/svg">
<g clip-path="url(#clip0_1_6489)">
<path d="M82.1501 56.6505C80.9728 67.2345 71.604 72 61.7688 72C52.9343 72 44.3897 68.1075 41.9445 59.5485V70.515H30.5561L28.8852 65.565C26.3947 69.8985 22.6228 72 17.6146 72C1.93353 72 0 58.806 0 46.863V26.3295C0 11.5065 1.87919 0 20.3677 0C33.8798 0 39.6034 5.751 41.3286 15.7905C42.515 4.9005 51.5215 0 61.7643 0C71.4772 0 80.8415 4.707 82.132 15.147C83.2369 24.489 83.2414 47.286 82.1456 56.655L82.1501 56.6505ZM56.0271 37.557V47.5875L76.2092 32.2335L56.0271 16.884V26.9145H23.8272C23.8272 23.355 25.2129 11.7135 20.9247 11.7135C17.4697 11.7135 18.1082 17.19 18.1082 19.5615V52.7085C18.1082 55.0665 17.6101 60.2955 21.0424 60.2955C24.7827 60.2955 24.3525 54.7155 24.3525 52.137V48.0465H20.8341V37.5615H56.0226L56.0271 37.557Z" fill="#1F87FF"/>
<path d="M128.337 60.291H119.073V40.716H105.348V60.291H96.0516V14.544H105.348V33.0525H119.073V14.544H128.337V60.2955V60.291Z" fill="black"/>
<path d="M149.095 43.578H144.476V60.2955H135.18V14.544H150.009C154.669 14.544 158.269 15.741 160.809 18.1395C163.349 20.538 164.617 23.949 164.617 28.368C164.617 34.443 162.394 38.6955 157.947 41.1255L166.012 59.8545V60.2955H156.018L149.095 43.578ZM144.48 35.8785H149.76C151.617 35.8785 153.007 35.2665 153.935 34.038C154.864 32.814 155.325 31.176 155.325 29.1195C155.325 24.5295 153.523 22.239 149.919 22.239H144.48V35.8785Z" fill="black"/>
<path d="M182.503 14.544L191.198 47.6325L199.86 14.544H212V60.2955H202.672V47.916L203.528 28.8405L194.327 60.2955H188.001L178.799 28.8405L179.651 47.916V60.2955H170.354V14.544H182.494H182.503Z" fill="black"/>
</g>
<defs>
<clipPath id="clip0_1_6489">
<rect width="212" height="72" fill="white"/>
</clipPath>
</defs>
</svg>
