<svg width="84" height="72" viewBox="0 0 84 72" fill="none" xmlns="http://www.w3.org/2000/svg">
<path d="M82.6682 56.6505C81.4909 67.2345 72.1221 72 62.2869 72C53.4524 72 44.9077 68.1075 42.4625 59.5485V70.515H31.0742L29.4033 65.565C26.9128 69.8985 23.1408 72 18.1327 72C2.4516 72 0.518066 58.806 0.518066 46.863V26.3295C0.518066 11.5065 2.39726 0 20.8858 0C34.3979 0 40.1215 5.751 41.8467 15.7905C43.0331 4.9005 52.0396 0 62.2823 0C71.9953 0 81.3595 4.707 82.6501 15.147C83.7549 24.489 83.7595 47.286 82.6637 56.655L82.6682 56.6505ZM56.5452 37.557V47.5875L76.7272 32.2335L56.5452 16.884V26.9145H24.3453C24.3453 23.355 25.7309 11.7135 21.4428 11.7135C17.9878 11.7135 18.6262 17.19 18.6262 19.5615V52.7085C18.6262 55.0665 18.1281 60.2955 21.5605 60.2955C25.3008 60.2955 24.8706 54.7155 24.8706 52.137V48.0465H21.3522V37.5615H56.5406L56.5452 37.557Z" fill="#1F87FF"/>
</svg>
